<svg xmlns="http://www.w3.org/2000/svg" viewBox="0 0 407.13 103.97"><defs><style>.cls-1{fill:#f47923;}.cls-2{fill:#8a8889;}.cls-3,.cls-5{opacity:0.15;}.cls-4,.cls-5{fill:#fff;}</style></defs><g id="Layer_2" data-name="Layer 2"><g id="Layer_1-2" data-name="Layer 1"><path class="cls-1" d="M0,102.78V29.43a8.26,8.26,0,0,1,2.5-6.07,9.17,9.17,0,0,1,6.07-2.74h9.05L51,77.06V20.62H67.63v82.16H50.25L16.67,46.34v56.44Z"/><path class="cls-1" d="M117.21,83.25h11.91q-2.62,10-10,15.24-7.4,5.49-18.58,5.48Q87,104,79.35,95.16q-7.63-8.56-7.62-24.53,0-15.24,7.38-23.81Q86.73,38,100.31,38q14.28,0,22.14,8.57,7.62,8.81,7.63,24.53v2.62a4.19,4.19,0,0,1-.24,1.66H88.63q.24,7.39,3.58,11,3.09,3.81,9.29,3.81a13.39,13.39,0,0,0,6.9-1.67,3.2,3.2,0,0,0,1.31-.83L111,86.35a5.18,5.18,0,0,1,1.79-1.91A7.11,7.11,0,0,1,117.21,83.25ZM88.63,64.68h24.3q-.48-6.44-3.34-9.53-3.09-3.33-8.81-3.33a11.61,11.61,0,0,0-8.57,3.33Q88.87,58.5,88.63,64.68Z"/><path class="cls-2" d="M224.77,102.78V29.43a8.54,8.54,0,0,1,8.57-8.57h30q12.61,0,19.29,5.24,6.66,5.71,6.67,15.48a19.8,19.8,0,0,1-2.62,10.48,18.33,18.33,0,0,1-7.39,6.43,21.39,21.39,0,0,1,9.53,7.38q3.09,4.53,3.1,11.91,0,11.91-7.62,18.57-7.86,6.44-22.15,6.43ZM241,52.53h19.29q6.19,0,9.05-2.14t2.86-6.67c0-3-1-5.24-2.86-6.67-1.59-1.27-4.68-1.9-9.29-1.9H241ZM241,88h20c4.44,0,7.86-.86,10.24-2.61q3.33-2.39,3.33-8.1T271.21,69q-3.1-2.37-10.48-2.38H241Z"/><path class="cls-2" d="M348.73,102.78a124.09,124.09,0,0,1-17-.23q-9.18-.72-9.17-11.68v-70h8.57a7.57,7.57,0,0,1,5.48,2.38A7.83,7.83,0,0,1,339,29V39.67h9.76V43a7.67,7.67,0,0,1-2.38,5.83,8,8,0,0,1-5.71,2.27H339V86.35q0,4.05,4.76,4.05h5Z"/><path class="cls-2" d="M350.92,81.82h16.2A8.73,8.73,0,0,0,370.69,89c2.38,1.59,5.56,2.38,9.52,2.38a15.42,15.42,0,0,0,7.39-1.66,5.09,5.09,0,0,0,2.85-4.53q0-4.29-10-6.43A45.47,45.47,0,0,1,374,77.3q-12.61-3.09-16.9-7.38a14.62,14.62,0,0,1-4.77-11.43,19,19,0,0,1,6.91-15Q366.4,38,377.83,38q12.38,0,19.77,5.47A21,21,0,0,1,405,59H394.74a7.54,7.54,0,0,1-6.9-4L385.93,53q-2.85-2.15-7.86-2.14c-3.18,0-5.56.47-7.14,1.43a4.8,4.8,0,0,0-2.15,4.28q0,3.81,12.39,6.43a24.91,24.91,0,0,0,2.5.72,9.86,9.86,0,0,0,2,.23q12.15,3.1,16.91,7.15,4.53,4.29,4.53,11.43,0,10.49-7.63,16.19Q392.36,104,378.07,104q-13.57,0-20.24-5.48-6.91-5.47-6.91-15.95Z"/><path class="cls-1" d="M216.9,14.9c-49.36,18.31-73.51,68.83-81.06,87.87h11.89A219.53,219.53,0,0,1,157,79.56l15,23.22h19.05L165.36,63.73C180.49,38.38,198.74,23.41,216.9,14.9Z"/><path class="cls-2" d="M156,48.52l-6.63-9.09H131L145.68,63a182.73,182.73,0,0,0-19.28,39.74h7.4c7.55-19,31.7-69.56,81.07-87.87,39-18.28,78.35-6.63,84.07-2.94C251.23-18.78,182,15.66,156,48.52Z"/><path class="cls-1" d="M213.06,51.11a8,8,0,0,0,5.71-2.27A7.67,7.67,0,0,0,221.15,43V39.67h-9.76V29A7.83,7.83,0,0,0,209,23.24a8.92,8.92,0,0,0-1-.79c-4.86,2.4-10.68,7.38-13.07,9.52v58.9q0,11,9.16,11.68a124.23,124.23,0,0,0,17,.23V90.4h-5q-4.76,0-4.76-4.05V51.11Z"/><path class="cls-1" d="M317.24,19.66a8.24,8.24,0,0,0-1.07-2.23,7.87,7.87,0,0,0-1.82-1.83,9.08,9.08,0,0,0-3-1.41,16.77,16.77,0,0,0-4.67-.54c-3.94,0-6.88.82-8.81,2.48S295,20.67,295,24.81a17.53,17.53,0,0,0,.57,4.61,8.56,8.56,0,0,0,1.58,3.29,9,9,0,0,0,3.6,2.57,15.79,15.79,0,0,0,5.74.87q6.35,0,8.94-2.75T318,24.74A16.5,16.5,0,0,0,317.24,19.66Zm-12,12A4,4,0,0,1,303.34,29a15.05,15.05,0,0,1-.57-4.22,13.46,13.46,0,0,1,.61-4.12,4.61,4.61,0,0,1,1.77-2.65,3.35,3.35,0,0,1,.82-.33,3.24,3.24,0,0,1,.46,0,3.18,3.18,0,0,1,2.86,1.49c.63,1,.95,2.94.95,5.83a17,17,0,0,1-.41,4.35,3.8,3.8,0,0,1-1.29,2,3.38,3.38,0,0,1-2.07.64A3.26,3.26,0,0,1,306,32,3.61,3.61,0,0,1,305.22,31.65Z"/><path class="cls-2" d="M314.39,41.5a9.76,9.76,0,0,0-6-1.84h-4.95a20.48,20.48,0,0,1-.95,2.61A14.31,14.31,0,0,1,296,48.4a27.9,27.9,0,0,1-5,1.85v10h9.59c0,8.83.06,17.66,0,26.49,0,3.68-.47,8.46,1.12,11.77,2.4,5,7.6,4.44,12.24,4.44h2.91V46.1A5.53,5.53,0,0,0,314.39,41.5Z"/><g class="cls-3"><path class="cls-4" d="M51,77.06,17.62,20.62h-9A9.17,9.17,0,0,0,2.5,23.36,8.26,8.26,0,0,0,0,29.43V80.54l16.67.37V46.34l20.84,35q15.09.31,30.12.54V20.62H51Z"/><path class="cls-4" d="M100.31,38q-13.57,0-21.2,8.81-7.38,8.57-7.38,23.81A50.86,50.86,0,0,0,72.91,82q8.43.09,16.86.13a22.72,22.72,0,0,1-1.14-6.72h41.21a4.19,4.19,0,0,0,.24-1.66V71.11q0-15.72-7.63-24.53Q114.59,38,100.31,38ZM88.63,64.68q.24-6.2,3.58-9.53a11.61,11.61,0,0,1,8.57-3.33q5.72,0,8.81,3.33,2.86,3.1,3.34,9.53Z"/><path class="cls-4" d="M286.69,52.06a19.8,19.8,0,0,0,2.62-10.48q0-9.76-6.67-15.48-6.67-5.24-19.29-5.24h-30a8.54,8.54,0,0,0-8.57,8.57V75.05Q232.87,74,241,72.73V66.58h19.77a23.8,23.8,0,0,1,8.15,1.16q9.09-1.86,18.19-4a22.59,22.59,0,0,0-7.77-5.24A18.33,18.33,0,0,0,286.69,52.06ZM269.3,50.39q-2.85,2.14-9.05,2.14H241V35.15h19c4.61,0,7.7.63,9.29,1.9,1.91,1.43,2.86,3.66,2.86,6.67S271.21,49,269.3,50.39Z"/><path class="cls-4" d="M339,39.67V29a7.83,7.83,0,0,0-2.38-5.72,7.57,7.57,0,0,0-5.48-2.38h-8.57v31a113.27,113.27,0,0,0,22.55-12.21Z"/><path class="cls-4" d="M216.9,14.9C181.07,28.19,158.53,58.44,146,81.32q5.21-.19,10.4-.43c.21-.44.4-.9.61-1.33l.82,1.27q9.06-.43,18.12-1L165.36,63.73C180.49,38.38,198.74,23.41,216.9,14.9Z"/><path class="cls-4" d="M214.87,14.9c39-18.28,78.35-6.63,84.07-2.94C251.23-18.78,182,15.66,156,48.52l-6.63-9.09H131L145.68,63A197.62,197.62,0,0,0,135.2,81.65l8.7-.26C156.45,58.5,179,28.2,214.87,14.9Z"/><path class="cls-4" d="M211.39,29A7.83,7.83,0,0,0,209,23.24a8.92,8.92,0,0,0-1-.79c-4.86,2.4-10.68,7.38-13.07,9.52V78.32q8.22-.73,16.43-1.66V51.11h1.67a8,8,0,0,0,5.71-2.27A7.67,7.67,0,0,0,221.15,43V39.67h-9.76Z"/><path class="cls-4" d="M314.39,41.5a9.76,9.76,0,0,0-6-1.84h-4.95a20.48,20.48,0,0,1-.95,2.61A14.31,14.31,0,0,1,296,48.4a27.9,27.9,0,0,1-5,1.85v10h9.4c5.23-1.94,10.8-3.9,16.46-6.1V46.1A5.53,5.53,0,0,0,314.39,41.5Z"/></g><path class="cls-5" d="M317.24,19.66a8.24,8.24,0,0,0-1.07-2.23,7.87,7.87,0,0,0-1.82-1.83,9.08,9.08,0,0,0-3-1.41,16.77,16.77,0,0,0-4.67-.54c-3.94,0-6.88.82-8.81,2.48S295,20.67,295,24.81a17.53,17.53,0,0,0,.57,4.61,8.56,8.56,0,0,0,1.58,3.29,9,9,0,0,0,3.6,2.57,15.79,15.79,0,0,0,5.74.87q6.35,0,8.94-2.75T318,24.74A16.5,16.5,0,0,0,317.24,19.66Zm-12,12A4,4,0,0,1,303.34,29a15.05,15.05,0,0,1-.57-4.22,13.46,13.46,0,0,1,.61-4.12,4.61,4.61,0,0,1,1.77-2.65,3.35,3.35,0,0,1,.82-.33,3.24,3.24,0,0,1,.46,0,3.18,3.18,0,0,1,2.86,1.49c.63,1,.95,2.94.95,5.83a17,17,0,0,1-.41,4.35,3.8,3.8,0,0,1-1.29,2,3.38,3.38,0,0,1-2.07.64A3.26,3.26,0,0,1,306,32,3.61,3.61,0,0,1,305.22,31.65Z"/></g></g></svg>