<svg xmlns="http://www.w3.org/2000/svg" viewBox="0 0 82.33 78.91"><defs><style>.cls-1{fill:#f47a20;}.cls-2{fill:#8c8b8c;}</style></defs><g id="Layer_2" data-name="Layer 2"><g id="Layer_1-2" data-name="Layer 1"><path class="cls-1" d="M80.76,4.87c-.18-.28-.37-.54-.57-.8C44.84,24.39,26.1,61.63,19,78.91h2C28,61.86,46.31,25.36,80.76,4.87Z"/><path class="cls-2" d="M40.37,58.76a212.17,212.17,0,0,0-8.14,20.15H53.39Z"/><path class="cls-2" d="M48.41,43.55,71.68,78.91h.39A10.29,10.29,0,0,0,82.33,68.65V10.26a10,10,0,0,0-.8-3.95C69.75,14.85,58.38,26.85,48.41,43.55Z"/><path class="cls-1" d="M29.51,42.87,15.43,20.2H33.05l6.37,8.73c8-10.11,20.31-20.38,34.79-28.7A10.71,10.71,0,0,0,72.07,0H10.26A10.29,10.29,0,0,0,0,10.26V68.65A10.29,10.29,0,0,0,10.26,78.91H11.7A182.41,182.41,0,0,1,29.51,42.87Z"/></g></g></svg>